<?xml version="1.0" encoding="iso-8859-1"?>
<!-- Generator: Adobe Illustrator 19.0.0, SVG Export Plug-In . SVG Version: 6.00 Build 0)  -->
<svg version="1.1" id="Capa_1" xmlns="http://www.w3.org/2000/svg" xmlns:xlink="http://www.w3.org/1999/xlink" x="0px" y="0px"
	 viewBox="0 0 436.907 436.907" style="enable-background:new 0 0 436.907 436.907;" xml:space="preserve">
<circle style="fill:#45B39C;" cx="218.453" cy="218.453" r="218.453"/>
<g style="opacity:0.1;">
	<path d="M434.735,249.002l-135.81-135.81l-80.487-22.733l-80.452,22.733l35.362,35.362v5.666
		c-2.185,6.281-3.447,13.107-3.447,20.275c0,18.022,7.714,33.963,19.524,43.998l-0.137-0.034l15.497,15.462v0.921h-0.137
		c-7.407,0.512-12.97,1.536-16.657,2.458c-3.311,0.819-5.12,1.536-5.462,1.673c-44.271,10.82-77.141,50.722-77.141,98.338v9.148
		l89.115,89.115c7.869,0.858,15.852,1.333,23.95,1.333C328.729,436.907,419.87,355.181,434.735,249.002z"/>
</g>
<path style="fill:#2F4859;" d="M230.243,236.049h-23.58c-55.923,0-101.257,45.334-101.257,101.257v9.147h226.095v-9.147
	C331.501,281.384,286.166,236.049,230.243,236.049z"/>
<path style="fill:#EBF0F3;" d="M182.512,238.96c0,0,22.237-9.494,68.69-0.733l-18.704,108.226H205.97L182.512,238.96z"/>
<polygon style="fill:#E56353;" points="231.177,234.839 246.175,267.315 218.453,251.55 188.906,268.26 204.658,234.839 "/>
<path style="fill:#F6C358;" d="M223.48,250.034h-10.053c-4.775,0-8.645-3.871-8.645-8.645v-19.042c0-3.22,2.611-5.831,5.831-5.831
	h15.682c3.22,0,5.831,2.611,5.831,5.831v19.042C232.125,246.164,228.255,250.034,223.48,250.034z"/>
<ellipse style="fill:#FCD462;" cx="218.453" cy="174.49" rx="48.548" ry="54.955"/>
<rect x="173.353" y="119.535" style="fill:#3A556A;" width="90.201" height="34.669"/>
<polygon style="fill:#64798A;" points="218.453,90.453 137.986,113.195 218.453,135.937 298.921,113.195 "/>
<path style="fill:#F6C358;" d="M265.412,211.16c-0.943,0-1.707-0.763-1.707-1.707v-86.177l-40.613-8.41
	c-0.923-0.192-1.517-1.095-1.323-2.018c0.193-0.925,1.11-1.508,2.017-1.325l41.973,8.692c0.793,0.165,1.36,0.862,1.36,1.672v87.567
	C267.119,210.397,266.355,211.16,265.412,211.16z"/>
<ellipse style="fill:#3A556A;" cx="218.453" cy="113.186" rx="7.11" ry="5.547"/>
<g>
	<circle style="fill:#DC8744;" cx="265.626" cy="211.61" r="4.147"/>
	<path style="fill:#DC8744;" d="M265.612,211.611c-2.709,0-4.905,7.629-4.905,17.041h9.809
		C270.516,219.24,268.321,211.611,265.612,211.611z"/>
</g>
<g>
</g>
<g>
</g>
<g>
</g>
<g>
</g>
<g>
</g>
<g>
</g>
<g>
</g>
<g>
</g>
<g>
</g>
<g>
</g>
<g>
</g>
<g>
</g>
<g>
</g>
<g>
</g>
<g>
</g>
</svg>
